<?xml version="1.0" encoding="UTF-8"?>
<svg viewBox="0 0 827.59 699.48" xmlns="http://www.w3.org/2000/svg">
 <g fill="#7f007f">
  <path d="m405.53 414.06c-3.1756-0.87085-6.353 0.10297-9.5324 0.63382-6.1868 1.2517-12.216 3.0981-18.306 4.7352-6.4733 1.8166-12.068 5.382-17.73 8.897-4.3656 3.1985-7.5907 7.2118-10.588 11.599-3.4781 5.7126-5.3896 12.164-7.1473 18.567-2.3736 8.005-3.5258 16.305-4.8862 24.53-1.1666 8.4672-2.6187 16.876-3.9838 25.302-0.84549 7.3052-2.4115 14.468-4.2798 21.57-1.5687 5.5464-3.4496 11.003-5.0237 16.558-1.3926 2.9644-2.6553 6.0217-3.966 8.9412-0.57333 1.818-1.485 3.5236-2.2212 5.2068 1.8188-4.4769-0.65094-6.171-5.2863-7.5281-0.23407 0.57874 2.4039-1.2022 3.1167-1.5587 3.8243-3.4713 7.5834-7.0007 11.046-10.827 4.9307-5.556 10.618-10.386 16.378-15.047 5.3029-4.2832 10.953-8.1589 16.507-12.088 6.2329-4.1237 12.406-8.3392 18.135-13.157 7.5383-6.6046 13.628-14.392 19.629-22.345 5.038-7.7913 8.8559-16.183 12.272-24.778 2.9514-7.1169 5.5388-14.368 8.1012-21.632 3.2387-3.1916 2.5413-6.5315 3.3715-9.9781 0.47318-1.9641 2.0458-2.3307 2.8192-0.46423 1.6025 3.8673 2.8401 7.9556 4.5032 11.954 0.27301 9.166-2.3786 17.557-6.4687 25.725-4.5647 8.911-8.9884 17.99-14.87 26.123-6.0306 8.8754-13.167 17.047-20.668 24.708-5.7556 5.9056-11.456 11.912-18.538 16.26-5.4709 3.4154-11.016 6.7471-16.225 10.584-5.3342 4.4038-10.472 8.925-15.208 13.962-4.6414 3.9774-9.0155 8.3895-14.704 10.975-2.5488 1.4463-5.1036 3.1698-8.0018 3.7252-6.4767-1.6121-7.8945-4.1455-5.7697-9.8592 0.7821-1.3381 1.6376-2.863 2.4952-4.2693 1.1264-2.8444 2.479-5.7244 3.3826-8.7214 2.5289-4.8309 4.6285-9.7876 6.2907-14.987 1.9365-6.8053 3.8559-13.604 5.2388-20.547 1.6695-8.3209 3.0474-16.692 4.4463-25.067 1.4457-8.4582 3.2225-16.841 4.8808-25.256 2.0465-7.1296 3.844-14.314 7.2795-20.943 3.4647-5.6893 6.8109-11.317 12.752-14.772 6.1014-4.1435 12.432-7.7655 19.041-11.051 6.0782-3.0536 12.264-5.7949 18.756-7.8795 4.023-1.3551 8.0838-2.568 12.153-3.7563 10.843-3.1665 11.703 18.942 0.8092 15.954z"/>
  <path d="m425.73 406.28c2.5685 0.1029 5.1311 1.0464 7.6142 1.8262 4.7349 1.2257 9.4888 2.1985 14.321 2.9662 5.8249 1.5632 11.877 1.824 17.846 2.0434 5.3708 0.17694 10.595-0.38602 15.853-1.2988 6.194-1.0672 11.787-3.9199 17.427-6.5561 5.3496-2.8134 9.9901-6.4499 14.489-10.424 2.5576-2.0936 3.904-5.0686 5.463-7.6686 1.0925-1.1084 0.48071-2.553 0.70038-3.7199-0.024109-0.50195-0.20136-0.82745-0.32111-1.3195-0.18768-0.36783 0.27954 0.77704 0.41931 1.1656 0.52405 0.30905 1.1718 0.32791 1.7576 0.49185-3.7-0.17172-7.47 0.88715-11.1 1.6748-6.527 1.8066-13.125 3.3222-19.675 5.0665-6.4146 1.5172-12.824 3.0197-19.266 4.4083-6.6585 2.4541-13.213 3.2623-19.845 2.7798-6.992 1.642-14.12 2.498-21.24 3.3433-2.0062 0.23816-2.3243-2.6014-0.31808-2.8394 7.0108-0.83157 14.03-1.6719 20.915-3.2877 5.603-3.335 11.9-5.746 18.794-6.872 6.4016-1.6266 12.874-2.8628 19.343-4.2398 6.4692-1.5031 12.799-3.3351 18.956-5.8442 4.0441-1.5507 8.1103-3.0408 12.201-4.4147 3.2174-0.46896 5.249-1.1783 8.0424 1.1429 0.8183 1.5234 2.4503 2.8151 2.3829 4.6988 0.14392 1.618 0.67627 3.2015 0.43567 4.8987-0.60413 2.6619-1.1386 5.3391-2.323 7.8253-2.8012 3.6737-5.308 7.5168-9.4647 9.8742-5.349 3.7657-10.836 7.3901-16.8 10.125-6.2078 3.3356-12.452 6.701-19.288 8.5769-5.9698 0.76804-11.908 1.1363-17.919 0.35156-6.2995-0.48282-12.65-1.0208-18.968-1.7188-4.8773-1.1034-9.7549-2.1502-14.685-3.0049-3.0006-0.64136-6.0544-0.99231-8.5863-2.8648-4.3924-3.2485-2.6205-7.4045 2.8382-7.1858z"/>
  <path d="m542.56 375.94c5.8686 0.66022 10.866-0.87363 16.859-0.71982 10.114 1.1954 20.202 2.4364 30.287 3.8095 11.9 2.4977 23.072 7.3288 34.558 11.175 10.216 4.5187 20.644 8.5314 30.749 13.292 6.6218 2.3436 12.58 6.0649 18.816 9.2275 3.7744 1.1796 6.6509 3.7806 9.6212 6.2551 4.0767 3.8602 5.2566 7.2911 4.5859 13.026-3.2304 6.4162-6.2136 5.4955-12.7 3.415-1.9238-0.617-1.2037-0.32013-1.7365-2.2689-0.31921-1.1676-2.0411-10.296-4.0028-5.4337 0.076965 0.72409 1.2029 7.8344 0.67346 4.2042-1.8294-1.8494-3.5423-3.9078-5.4907-5.6784-4.9327-4.2249-10.142-8.0525-15.349-11.942-9.4496-5.3489-18.977-10.515-29.177-14.351-10.357-5.1285-21.278-8.9825-32.496-11.765-9.4269-2.8059-18.856-3.9486-28.728-3.4049-5.6998-0.20633-10.511-2.1982-16.04-0.90247-5.4736 1.2829-6.0176-8.5674-0.43097-7.9388z"/>
  <path d="m429.94 380.31c1.3127-2.3 3.2346-4.2101 4.7024-6.4911 1.7502-2.4441 2.8527-5.2132 3.9658-7.9771 0.8822-2.6418 1.4757-5.3515 2.1595-8.0567 0.63663-2.8412 0.33569-5.6728 0.039673-8.5301-0.76923-3.8753-2.2804-7.5334-3.5858-11.249-2.2395-4.7256-4.1509-9.5603-6.7881-14.092-2.408-5.0622-6.1378-9.3328-9.6942-13.62-3.718-4.4728-8.4945-7.8315-12.724-11.75-3.9375-3.3602-7.9763-6.5868-12.18-9.6039-2.6858-2.055-5.6413-3.7101-8.4611-5.5539-1.5867-0.7113-2.9543-1.7392-4.4453-2.6156-0.75586-0.18115-1.4928-0.33603-2.2431-0.50494-0.4151-1.9855-0.94827-1.0937-2.3842-1.4712-1.3965 0.93863-2.443 2.244-3.413 3.6007-1.4221 2.4623-2.475 5.0988-3.5179 7.7262-1.342 3.2826-1.7862 6.8237-2.206 10.324-0.30533 4.2108-0.46039 8.4854-0.34476 12.712 0.26968 5.2612 1.115 10.492 2.1159 15.664 1.2914 5.5859 3.116 11.014 4.824 16.48 2.2113 5.3167 4.4352 10.587 7.14 15.678 2.8796 4.579 5.2888 9.4089 8.5907 13.714 3.5712 4.6767 7.7079 9.0942 12.302 12.78 3.2859 2.4488 5.6179 5.6365 9.1795 7.6799 0.87619 0.50272 0.16452 1.7422-0.71133 1.2389-3.6253-2.0831-7.817-3.0263-10.917-5.9919-4.7377-4.123-9.6678-8.0201-13.545-13.031-3.1827-4.6297-6.2917-9.3699-8.4788-14.567-2.5923-5.3088-5.2337-10.67-6.9532-16.331-2.0703-5.5005-3.4448-11.232-4.4715-17.014-1.2032-5.3572-2.3149-10.702-2.5198-16.21-0.10919-4.432-0.17386-8.8035 0.52454-13.205 0.58893-3.7335 1.1222-7.4378 2.2589-11.064 1.0068-2.8627 2.0187-5.7339 3.5276-8.3827 1.0301-2.1407 1.8081-4.292 3.7871-5.8384 1.7184-1.6685 3.407-3.2749 5.3982-4.5985 2.1293 0.042542 4.1675 0.004242 6.113 1.0609 2.2976 0.85983 4.4121 1.8334 6.2212 3.5388 2.9686 2.1186 5.7337 4.4777 8.5062 6.8526 3.9848 3.5404 7.9319 7.1152 11.805 10.778 4.6179 3.9864 8.7324 8.554 12.902 13.009 4.0751 4.5632 7.6053 9.5134 11.038 14.566 2.6306 4.8288 5.3926 9.6444 7.3524 14.79 2.0761 4.1157 3.887 8.3856 4.9396 12.886 0.70935 4.0022 1.1571 7.9352 0.21646 11.977-0.66077 3.4958-1.4477 6.8922-3.2286 10.025-1.7252 3.0467-3.576 6.036-5.8524 8.7362-1.7539 2.0503-3.1705 4.5246-5.1322 6.2602-3.8381 3.3959-8.3528 0.12174-5.8125-4.3291z"/>
  <path d="m479.34 379.28c2.137-0.10629 4.2052-0.87906 6.2849-1.6092 5.6494-2.5358 9.703-7.4091 13.537-12.098 5.8313-7.9872 9.8473-17.012 13.495-26.148 3.6366-9.3756 6.4065-19.047 8.9804-28.758 2.0483-7.9202 3.4817-15.969 4.7526-24.043 0.99225-6.3386 1.4648-12.755 1.3-19.168 0.001343-4.8048-0.80505-9.5102-1.5966-14.226-0.76715-3.5979-1.8502-7.1245-2.9816-10.61-0.43445-2.1038-1.6037-3.7366-2.8324-5.4088-0.36548-0.6156-0.95477-1.067-1.4322-1.6006 2.0827-1.4006-2.6332 0.47082-3.2376 0.75842-4.3844 3.0579-7.8355 7.0965-11.057 11.323-4.9069 6.9634-8.5408 14.644-12.237 22.284-4.7331 9.6477-8.8892 19.552-12.689 29.599-4.0422 10.922-7.4524 22.068-10.355 33.343-2.6201 10.723-4.6449 21.598-5.7108 32.587-0.90832 4.489-0.6799 9.0237-0.4502 13.555 0.051147 1.0089-1.3761 1.0809-1.4268 0.072021-0.23184-4.6144-0.33057-9.2263-0.36606-13.847 1.0977-11.126 3.0129-22.112 6.3776-32.804 3.3144-11.205 6.4317-22.48 10.595-33.413 3.8162-10.089 7.7618-20.142 12.692-29.749 3.8234-7.6664 7.4822-15.414 11.351-23.052 2.7254-5.0772 5.7371-9.9757 9.812-14.093 2.9169-3.2434 5.7221-6.6266 10.533-5.8232 2.6008 1.3206 4.6274 2.7091 6.3087 5.2029 1.3718 2.726 2.5569 5.5021 3.2831 8.49 0.82849 3.9226 1.6222 7.8552 2.2111 11.824 0.70966 5.1921 1.1439 10.425 0.89203 15.674-0.31018 6.8261-0.8645 13.64-2.3003 20.338-1.7778 8.1533-4.1494 16.157-6.5678 24.14-2.8578 9.8108-5.8508 19.56-9.5231 29.106-3.7038 9.5401-7.6792 19.03-12.837 27.887-3.7466 6.3783-7.95 12.282-14.118 16.555-2.6841 1.7225-5.5173 3.7178-8.6114 4.2723-7.491 1.3425-9.6756-10.183-2.0746-10.561z"/>
  <path d="m508.97 374.27c2.7296-1.1928 5.2813-3.0887 7.6952-4.8784 5.741-4.5952 10.848-9.917 15.849-15.29 5.2997-5.9785 10.043-12.4 14.466-19.044 3.9606-6.2994 7.884-12.596 11.57-19.06 3.4113-5.7269 6.6879-11.446 8.7708-17.835 0.29394-1.0064 0.58789-2.0129 0.88178-3.0194 0.28314-0.96967 1.6546-0.56897 1.3713 0.4006-0.29834 1.0206-0.59662 2.0411-0.8949 3.0617-2.1004 6.4369-3.8641 13.091-6.9203 19.123-3.4325 6.7221-7.2321 13.341-11.703 19.428-4.6632 6.6662-9.176 13.466-14.534 19.607-4.8233 5.7229-10.065 11.068-14.919 16.764-2.3123 2.7849-4.4996 5.6943-7.149 8.1764-4.4796 4.1968-10.109-4.9753-4.484-7.4333z"/>
  <path d="m576.28 246.6c-0.3222-1.3363 0.396-3.3438 0.78448-4.8984 0.59161-2.5358 0.63409-5.1041 0.49896-7.6851 0.16333-2.1164-0.21027-4.2108-0.4469-6.3 0.097412-0.70108-0.55115-1.9494-0.62549-2.2126 1.8456 1.1482 0.018982-0.098663-0.17322 0.89865-3.7458 2.8734-6.2673 6.9546-8.6706 10.945-4.5287 7.4012-9.3658 14.606-14.189 21.817-5.3447 7.8683-10.79 15.666-16.045 23.595-5.2502 7.8855-10.2 15.963-14.802 24.242-0.49084 0.8829-1.7395 0.18875-1.2487-0.69412 4.6209-8.3115 9.5891-16.421 14.86-24.337 5.2559-7.9308 10.702-15.731 16.048-23.6 4.8105-7.1919 9.6352-14.378 14.153-21.76 2.5814-4.2859 4.5886-8.8903 7.4075-13.026 2.2143-2.3044 3.8791-3.368 6.7224-1.2599 0.87347 1.6206 1.7515 3.0037 1.5447 5.0483-0.018677 2.2743-0.12616 4.5437-0.12506 6.819-0.39996 2.6969-0.68976 5.3875-0.89215 8.105-0.095825 1.7561 0.051758 3.971-0.80066 5.311-1.5656 2.4612-3.3163 1.8273-4.0001-1.0084z"/>
  <path d="m545.17 353.33c1.6945-3.7759 4.7986-6.3892 7.5516-9.3571 6.424-6.8169 11.148-14.94 16.869-22.32 7.4039-8.8843 14.436-18.052 21.145-27.468 7.1033-10.429 14.648-20.727 20.111-32.132 4.366-9.0201 7.4573-18.507 10.057-28.155 2.357-7.6813 4.0706-15.536 5.8937-23.356 1.0236-5.8394 1.8272-11.695 2.0931-17.617 0.5199-3.138-0.41577-6.0572-1.1913-8.9411-0.42004-0.99588-1.3694-1.3238-2.1389-1.9255-0.10022-0.33893-1.393 0.29736-1.999 0.4267-6.7416 2.2436-11.654 6.1056-16.152 11.504-4.2024 5.5765-2.1122 2.6649-6.248 8.7511-0.56775 0.83548-1.7495 0.032227-1.1815-0.80313 4.1901-6.162 2.0719-3.2131 6.3322-8.8625 4.7555-5.7048 8.1946-12.254 13.214-17.66 3.9679-2.8814 7.8402-3.8343 12.216-1.2274 2.274 2.2219 4.1868 4.4852 4.7465 7.7551 0.22809 4.0662 0.024475 7.9131-0.99799 11.894-1.3587 5.9459-2.9058 11.838-4.7134 17.672-1.9836 7.8559-4.2879 15.628-6.274 23.481-3.2383 9.6098-7.13 19.012-11.986 27.926-6.1861 11.144-11.591 22.737-18.761 33.333-6.3795 9.7389-13.291 19.078-20.355 28.329-5.6475 7.4337-11.934 14.404-16.739 22.445-2.2282 3.4677-4.1024 7.1028-7.4848 9.6198-2.9482 2.194-5.5106 0.041718-4.006-3.3112z"/>
  <path d="m402.59 401.42c-3.2855-1.0652-6.5658-2.0893-9.8975-3.0247-8.9004-2.636-17.569-5.9164-26.187-9.3616-12.249-3.8869-23.658-9.562-34.377-16.588-11.339-7.8094-20.579-18.003-29.269-28.566-7.1278-8.7319-13.344-18.131-19.357-27.646-3.3207-5.5908-5.5449-11.69-8.0385-17.664-1.2633-2.6349-2.3509-5.3511-3.5252-8.0281-0.65427-1.248-1.3074-2.4437-2.0164-3.6617-0.79758-4.0358 1.5859-5.2641 5.2259-5.1552 3.4818 1.377 6.7168 3.2829 10.263 4.4893 6.562 2.971 13.494 5.0504 20.332 7.2843 9.6671 4.073 18.817 9.3024 27.508 15.161 8.8609 5.2808 17.005 11.501 24.688 18.355 3.7885 4.1689 7.0546 8.7028 10.77 12.958 0.6644 0.76092-0.41186 1.7005-1.0761 0.93951-3.6868-4.2237-7.7478-7.6987-12.243-11.044-7.5178-6.732-15.444-13.02-23.597-18.964-8.693-5.4419-17.25-11.266-27.039-14.611-6.7514-2.5843-13.792-4.1745-20.849-5.711-3.1822-1.112-6.5093-2.0055-9.8814-2.2278 0.9689-0.70258 3.4335-1.3801 2.6596-3.6923 0.33786 1.0154 0.61658 2.5137 1.114 3.6292 0.86288 2.9343 1.6162 5.9203 1.8536 8.9879 1.2443 6.1561 3.4469 12.044 6.0617 17.754 4.6879 10.174 11.215 19.255 18.251 27.941 8.5964 10.453 17.733 20.546 28.949 28.279 10.593 6.9496 21.876 12.677 34.069 16.291 8.8217 2.1285 17.758 4.2246 26.835 4.7953 2.9414 0.27429 6.0198 0.85049 8.9257 0.25052 6.117-1.263 5.7897 10.758-0.15179 8.8318z"/>
  <path d="m394.55 400.93c-2.2831 1.051-4.8267 1.3887-7.3288 1.6875-6.1459 0.56567-12.294 1.0924-18.472 1.1441-10.181 0.010681-20.363-0.19867-30.546-0.15149-12.909 0.17804-25.745-0.78336-38.617-1.5822-14.318-1.0268-28.488-3.083-42.522-6.0673-14.069-2.9656-27.727-7.3514-41.323-11.953-11.25-3.7154-22.102-8.4312-32.801-13.483-6.9031-3.5548-13.992-6.8351-20.716-10.737-3.8242-1.97-7.341-4.5295-10.798-7.0774-2.5375-1.8922-4.3532-4.2492-5.8911-6.9527-1.173-2.136-1.6661-4.4827-2.2066-6.816-0.42253-1.5714-0.41676-3.1401-0.36395-4.7425 0.098007-2.5703 1.4416-4.0479 3.0334-5.8759 2.6377-1.3497 5.3088-0.95221 8.1163-0.77063 4.1416-0.19287 8.2882 0.087708 12.435 0.090485 6.5512 0.45532 13.098 0.79013 19.624 1.555 7.6767 0.88803 15.333 1.9252 23.008 2.8315 8.0107 0.79492 15.742 3.0525 23.453 5.2463 8.1303 2.5019 16.257 5.0271 24.432 7.38 7.9447 2.2517 15.23 6.0526 22.893 9.0401 0.94116 0.36694 0.42206 1.698-0.51904 1.331-7.6706-2.9919-15.631-4.0683-23.553-6.2862-8.1703-2.3655-16.331-4.7108-24.493-7.1002-7.5182-2.1318-15.143-3.7712-22.86-5.0192-7.5635-1.2395-15.169-1.9363-22.814-2.4524-6.3278-0.40714-12.657-1.0002-18.992-0.37051-3.9909 0.24182-7.892 0.97577-11.829 1.6249-0.34027 0.10208-4.7262 1.4982-2.4104 1.0763 0.24391-0.39966 1.2995-1.5802 1.1214-1.8018 0.026764 0.22412 0.34644 1.6432 0.278 2.3288 0.22658 1.1741 0.34489 2.3559 1.0197 3.3768 0.99528 1.3583 1.9203 2.7391 3.2907 3.7642 3.0862 2.4886 6.2892 4.8469 9.4272 7.2818 6.1112 4.4248 12.123 8.9509 18.697 12.687 9.948 5.8818 20.167 11.361 30.914 15.653 13.25 4.9159 26.876 8.8681 40.714 11.753 13.856 2.6149 27.868 4.5671 41.95 5.392 12.704 0.78656 25.449 0.5957 38.16-0.001465 10.076-0.38062 20.15-1.0308 30.179-2.0431 6.002-0.64972 12.014-1.0635 18.011-1.7369 2.4592-0.19339 4.9925-0.46521 7.3413 0.34674 5.0075 1.731 5.7708 5.2159 0.95801 7.4313z"/>
  <path d="m425.82 297.25c0.99084-2.7737 2.7889-5.1119 4.7169-7.3104 3.3538-4.9118 6.7215-9.8261 10.235-14.628 3.491-5.1047 7.1324-10.081 11.233-14.714 3.2819-3.774 7.2411-6.2719 12.049-7.5184 5.0806-0.8942 9.3678 1.3482 13.229 4.4069 4.8399 3.0036 6.7527 8.0106 9.7205 12.476 0.40424 0.69028 0.80844 1.3806 1.2127 2.0709 0.51044 0.8717-0.72354 1.5935-1.2331 0.72128-0.38989-0.66733-0.77978-1.3347-1.1697-2.002-2.6926-4.0592-7.1353-6.8622-10.687-10.162-3.2311-1.9084-6.4594-3.6789-10.318-3.5542-4.1509 0.81403-7.7834 2.2961-10.839 5.4354-4.3498 4.2155-8.1783 8.9279-11.559 13.955-3.1426 4.9687-6.3424 9.8981-9.0385 15.131-0.70654 2.2352-1.6915 4.39-1.9613 6.7074-0.46469 3.9905-6.9415 2.7671-5.59-1.0163z"/>
  <path d="m438.63 276.62c-0.60257-0.93442-1.6955-1.6544-2.5721-2.4097-1.4015-1.5721-3.1995-2.6805-4.89-3.8942-1.8034-1.0344-3.8104-1.5503-5.8084-2.0553-2.2587-0.42987-4.535-0.43756-6.8172-0.48801-2.1624 0.051483-4.2105 0.68155-6.2665 1.2664-1.8786 0.66772-3.3538 2.0025-4.9137 3.1844-1.7004 1.5316-3.044 3.3826-4.3254 5.2584-1.2127 1.7408-2.0131 3.6947-2.9417 5.5998-0.14536 0.29392-0.29071 0.58786-0.43607 0.8818-0.44778 0.90549-1.5571 0.52362-1.3507-0.46521 0.067841-0.32507 0.13568-0.65015 0.20352-0.97519 0.54483-2.2321 1.0862-4.5171 2.2844-6.501 1.3814-2.0719 2.7706-4.1522 4.5262-5.9526 1.7943-1.7246 3.5006-3.3947 5.9919-4.0755 2.3363-0.69745 4.7069-1.1119 7.1514-1.2509 2.5196-0.047211 5.0327 0.066467 7.4946 0.66519 2.374 0.51559 4.6916 1.0526 6.7212 2.4777 1.8584 1.232 3.7232 2.4398 5.5001 3.7782 1.1136 0.9649 2.2166 1.8844 3.1206 3.0432 1.4291 1.8321-1.4129 3.8651-2.6722 1.9124z"/>
  <path d="m352.07 319.81c0.096069-1.5236-0.36926-3.0322-0.66446-4.5192-1.0078-3.8498-1.8512-7.74-2.7785-11.627-0.98376-5.4181-2.442-10.737-3.5214-16.143-0.77783-5.4063-1.4434-10.797-1.6538-16.265-0.20856-4.9558 0.88708-9.8059 1.7112-14.656 0.60098-3.4724 1.1206-6.9527 1.9506-10.37 0.49457-2.6957 1.9773-4.1464 4.1334-5.557 3.2939-1.2206 5.4004 0.18222 7.8635 2.2937 3.2358 3.5068 6.5002 7.0071 9.7646 10.5 3.8574 3.9724 7.0263 8.5028 10.061 13.112 0.55548 0.84372-0.63785 1.6293-1.1932 0.78549-2.9898-4.5421-6.1089-9.0087-9.9113-12.922-3.1644-3.3864-6.3003-6.8547-10.187-9.4347-1.6199-0.65469-2.9647-1.6362-4.7872-1.3013-1.1943 1.0572-2.4436 1.7821-3.0234 3.4407-1.2263 3.1971-2.433 6.387-3.1333 9.7544-1.0446 4.6931-1.422 9.5048-1.4195 14.307 0.071533 5.3338 0.43591 10.749 1.7593 15.926 1.0618 5.3239 2.0986 10.736 4.1132 15.787 1.3156 3.7279 2.9719 7.2203 4.8669 10.671 0.85361 1.6161 1.6525 3.2485 2.3757 4.9272 1.8065 4.1932-6.6137 5.8481-6.3265 1.2914z"/>
  <path d="m304.12 291.91c-0.75317-1.6008-0.9996-3.4069-1.3864-5.1231-0.86417-3.6745-1.674-7.3401-2.2637-11.075-0.85904-5.4601-1.7902-10.914-3.0223-16.304-0.88828-4.743-2.1623-9.4172-2.8529-14.193-0.69208-3.7559-1.3085-7.5223-1.8638-11.301-0.40298-2.1012-0.76349-4.1749-1.0033-6.2968 0.095825-3.0528 1.4551-3.7375 4.0806-4.6619 2.2511 0.74414 3.7204 2.6106 5.3038 4.283 2.6543 2.7727 4.9883 5.8193 7.3981 8.8004 3.3477 3.6947 6.2516 7.6923 9.0961 11.783 3.1125 4.5204 6.0566 9.1477 9.0419 13.75 2.8904 4.0962 5.2918 8.4557 7.7156 12.829 1.7072 4.282 3.6324 8.456 5.1785 12.807 1.443 3.8667 2.5533 7.8394 3.7607 11.782 0.51477 3.0922 0.97913 6.1838 1.5837 9.2587 0.19492 0.99118-1.0572 1.3256-1.3802 0.36853-0.99664-2.9535-2.0944-5.8508-3.3182-8.7245-1.1059-3.9266-2.3414-7.8147-3.4931-11.73-1.4034-4.2388-2.5357-8.6222-4.8823-12.466-2.0598-4.4547-4.5608-8.7105-7.0585-12.931-2.8403-4.6397-5.8158-9.2009-9.0449-13.582-2.9171-3.934-5.8109-7.8768-9.0086-11.58-2.5034-2.7018-5.0797-5.3353-8.1187-7.4439-0.45904-0.30295-3.1223-2.3912-2.7252-1.3856 0.15362-0.10779 2.6735-1.6844 1.8516-1.1684-0.094849 1.9113-0.30713 3.8397-0.11185 5.7594 0.30429 3.7427 0.54489 7.4789 1.0236 11.207 0.82159 4.7006 1.3129 9.4632 2.3428 14.132 0.92306 5.3693 1.943 10.76 3.6558 15.939 1.2582 3.4411 2.4926 6.8981 3.9616 10.25 0.68683 1.627 1.4863 3.2325 1.9182 4.9539 1.1537 4.5976-4.3607 6.3508-6.3787 2.0616z"/>
  <path d="m303.09 292.53c-1.3299-1.8003-2.1909-3.9558-3.1739-5.9865-2.0035-4.52-4.3712-8.8448-6.3975-13.364-2.5557-5.0909-5.5964-9.9181-7.9261-15.119-2.5313-5.4525-4.5153-11.122-6.2538-16.869-1.5371-5.2624-3.5706-10.331-5.3066-15.523-1.8111-4.2404-2.782-8.7617-3.9484-13.202-0.77939-3.892-1.2063-7.8314-1.8282-11.75-0.25525-2.8663-1.067-5.569-1.2506-8.4333-0.28879-2.3214-0.49616-4.6324-0.68243-6.9664-0.25723-1.493-0.23889-3.0148-0.34357-4.5096-0.033386-2.1281 0.84936-4.0945 1.4928-6.0559 0.42056-1.386 0.81732-2.7129 1.2304-4.05 0.37567-1.8307 1.712-2.7038 2.9876-3.8812 2.1368-1.3638 4.4063-1.0915 6.7971-0.74254 3.1615 1.3334 5.7907 3.5206 8.4604 5.6319 3.9123 3.0092 7.5149 6.3916 11.273 9.5842 4.3417 4.2941 8.5151 8.7789 12.578 13.342 4.2953 4.6575 8.0076 9.814 11.818 14.878 3.4421 4.8328 5.9301 10.204 8.0272 15.727 1.2944 2.6772 2.4321 5.4234 3.5587 8.1737 0.38294 0.93475-0.93918 1.4763-1.322 0.54144-1.116-2.7252-2.2431-5.4464-3.5256-8.099-2.9208-4.9878-5.6334-10.07-8.76-14.936-3.3923-5.2985-7.4475-9.8594-11.936-14.26-4.2665-4.2413-8.2494-8.7569-12.834-12.671-3.4667-3.226-7.2901-6.026-11.375-8.4265-2.4695-1.1424-4.9215-2.4219-7.6596-2.7773-0.49579-0.17789-0.80591-0.50771-1.1875-0.42604-0.16058 0.21379-0.41864 0.42432-0.54434 0.72459-0.51968 1.222-1.0805 2.4207-1.5453 3.7142-0.38409 1.245-0.82367 2.4048-0.72308 3.7658 0.006348 1.5274 0.17502 3.0882-0.072144 4.6198-0.036896 2.2329-0.13147 4.4488-0.022339 6.6793 0.25201 2.8219-0.13214 5.5919 0.12482 8.4214 0.15076 3.8125 0.52154 7.6158 1.2668 11.361 0.85919 4.3941 1.8407 8.748 2.9507 13.092 1.4982 5.2595 2.6958 10.586 4.3565 15.802 1.851 5.6018 3.3717 11.347 5.9854 16.664 2.574 5.0479 4.9447 10.188 7.8213 15.078 2.5768 4.1307 4.8448 8.4608 7.9045 12.257 1.4132 1.6929 2.9254 3.3384 4.2205 5.077 2.1718 2.9153-2.0764 5.8368-4.2364 2.9128z"/>
  <path d="m338.39 258.39c-1.0888-2.4653-1.6454-5.1115-2.3134-7.6981-1.4374-4.7118-2.8929-9.429-4.6839-14.021-2.1989-5.4671-3.5515-11.192-4.688-16.957-1.0193-5.8146-2.0668-11.624-3.1151-17.434-0.8663-4.3979-1.4395-8.8397-1.9588-13.286-0.27969-3.6475-0.57623-7.2946-0.74622-10.95-0.27551-2.6635-0.35712-5.3618-0.34424-8.0366-0.12601-2.0246 0.51092-3.9369 0.9357-5.8845 0.97241-2.3837 2.0764-3.1609 4.4902-3.6849 3.2888 0.53093 6.0804 2.3915 8.8219 4.1848 4.1212 3.2322 8.3758 6.2804 12.433 9.5951 4.4492 3.644 8.1208 8.0641 11.605 12.606 2.2693 2.8907 4.4574 5.8082 6.4836 8.8714 0.55731 0.84253-0.54166 1.6295-1.1614 0.83179-2.2395-2.8822-4.3554-5.846-6.4558-8.8339-3.416-4.4551-7.012-8.7944-11.375-12.369-3.9716-3.2462-7.9889-6.5779-12.639-8.8108-2.4027-1.1366-4.6332-2.7292-7.3736-2.6161-0.47726 0.37599-1.8988-0.12944-1.597 1.2581-0.55756 1.6568-1.0687 3.2854-1.2033 5.0459-0.27591 2.6021-0.38944 5.2257-0.6246 7.8372-0.11282 3.6161-0.25568 7.2113 0.242 10.811 0.44162 4.4187 1.0091 8.8171 1.8743 13.177 1.047 5.8019 2.0934 11.604 3.1109 17.411 1.1166 5.6693 2.3981 11.335 4.6726 16.671 1.9218 4.5687 4.2653 8.9446 6.1363 13.538 1.0817 2.2386 2.1997 4.4917 3.1921 6.7709 1.1879 2.7282-2.5152 4.6942-3.7174 1.9723z"/>
  <path d="m341.28 256.59c0.3988-2.1237 0.38013-4.3093 0.41702-6.4682 0.15482-3.5424-0.071198-7.0996-0.21728-10.647-0.17459-3.6714-0.14493-7.3461-0.097198-11.02 0.10205-2.6718-0.23682-5.2843-0.63336-7.9078-0.21207-2.1791-0.30542-4.3474-0.48315-6.4913-0.38745-1.8711-0.001404-3.6613 0.33313-5.4898 0.13495-1.565 1.2193-2.4929 2.0567-3.672 1.3643-1.7061 2.809-1.4204 4.6937-1.5891 3.0074 0.49326 5.4119 2.1683 7.7829 3.9628 3.0511 2.5148 5.6383 5.45 7.8847 8.6898 2.5953 4.0417 4.7532 8.3408 6.9651 12.598 2.1365 4.2601 4.163 8.575 6.1715 12.897 1.7884 3.5621 3.0974 7.2823 4.4078 11.025 0.15845 0.49579 0.31686 0.99158 0.47528 1.4873 0.30746 0.96222-1.0535 1.397-1.3608 0.43475-0.15613-0.4888-0.31226-0.97757-0.46841-1.4664-1.2903-3.6877-2.7513-7.3087-4.3493-10.878-1.9996-4.3027-4.0172-8.5986-6.1437-12.84-2.1842-4.2042-4.3146-8.4496-6.872-12.444-2.1273-3.0792-4.5118-6.032-7.666-8.1093-2.2136-1.1566-4.3528-2.5781-6.9568-2.7171-0.87598 0.2565-1.8121 0.014526-2.4414 0.83896-0.56946 0.78665-1.2698 1.457-1.6675 2.3549-0.16153 1.5986-0.36383 3.1966-0.39572 4.8103 0.071167 2.122 0.22198 4.2758 0.3696 6.4368-0.053467 2.6959-0.13956 5.396-0.2738 8.0929-0.047516 3.6476-0.077118 7.2962 0.096344 10.942 0.14548 3.534 0.22485 7.0908 0.83734 10.576 0.29153 2.0769 0.4888 4.2252 1.2976 6.1694 1.0283 2.4719-4.2563 3.0568-3.7622 0.4256z"/>
  <path d="m362.31 217.12c0.32141-1.8404 0.44107-3.7249 0.56857-5.5893 0.006958-2.9785 0.68002-5.8531 1.3869-8.7259 0.61935-3.2481 1.7457-6.3693 2.9661-9.4322 1.3355-2.9132 3.4714-4.9181 5.9268-6.8531 2.1168-1.6498 4.5552-2.7278 6.9118-3.9707 2.5812-1.3822 5.135-1.4458 7.9214-1.2702 3.6913 1.139 6.2988 3.803 9.0391 6.347 3.5911 3.3761 5.2933 8.0518 6.9862 12.562 0.35492 0.94574-0.9841 1.4473-1.3378 0.5011-1.6186-4.3299-3.9255-8.0616-7.2808-11.296-2.443-1.9622-4.8848-3.9808-8.0251-4.6622-2.1522-0.14914-3.9183-0.33502-5.9058 0.88184-2.2536 0.9527-4.4004 2.1034-6.4533 3.4481-1.9622 1.5923-3.8185 3.2659-4.8587 5.644-1.247 2.8319-2.4129 5.6542-2.9384 8.7302-0.37415 2.7013-0.79654 5.4191-0.75748 8.1569 0.080841 1.7011 0.059967 3.4864 0.63748 5.098 1.1465 3.1993-5.3717 3.7776-4.787 0.42978z"/>
  <path d="m400.78 228.32c0.30804-1.6169 0.39514-3.2303 0.64865-4.8584 0.26697-3.3343 0.69156-6.6079 1.2307-9.9142 0.78412-3.7705 1.7465-7.489 2.6796-11.224 0.58389-3.2266 1.5883-6.3481 2.7106-9.4156 0.81451-2.4605 1.9818-4.7161 3.3772-6.8843 1.1292-1.8857 2.8467-3.2182 4.4878-4.5838 1.705-1.6668 3.5373-2.1624 5.8162-2.4708 3.0667-0.088745 5.6498 1.0818 8.2999 2.3508 3.2013 2.4846 5.8156 5.5703 8.0341 8.952 2.9321 4.074 4.6584 8.7882 6.8424 13.26 2.6118 4.4964 4.357 9.4226 6.094 14.304 1.416 4.5225 2.082 9.1991 3.4748 13.725 0.29709 0.96548-1.0683 1.3856-1.3654 0.42017-1.3813-4.4889-3.4757-8.6411-5.3054-12.959-1.835-4.7401-3.9421-9.3382-5.9864-13.987-2.0837-4.2928-4.4842-8.4468-6.9804-12.51-2.0582-2.8421-4.1344-5.6914-7.0773-7.6761-1.7895-1.3034-3.4731-2.6454-5.7779-2.6704-1.4779 0.36584-3.0507 0.49551-4.3567 1.4632-1.404 1.245-2.8682 2.3929-4.0566 3.8836-1.2841 1.9882-2.6922 3.9322-3.5532 6.1663-1.172 2.973-2.3576 5.921-3.2336 9.0007-0.97998 3.6636-2.0429 7.34-2.4859 11.116-0.397 3.2474-0.84796 6.4991-0.86359 9.7812 0.10303 1.582 0.02301 3.1686 0.37723 4.7288 0.47455 2.0901-3.4321 2.1054-3.031 0z"/>
  <path d="m436.23 165.41c2.1681-2.4124 3.453-5.4717 5.068-8.2732 2.4134-4.0856 5.1601-7.9576 7.9569-11.786 2.2528-3.209 4.779-6.2005 7.3414-9.1616 1.4232-2.0518 3.2798-3.565 5.2113-5.079 2.319-1.3198 3.5549-0.51338 5.7327 0.429 1.8608 1.7308 3.6449 3.5555 5.4058 5.3603 2.4225 3.5442 4.821 7.0734 6.7585 10.917 2.094 4.0816 4.189 8.116 5.7467 12.445 1.4914 3.6862 2.6876 7.4753 3.8094 11.289 0.95367 2.5037 0.86163 5.2125 0.86813 7.784 0.002563 1.0102-0.94254 1.2091-1.3954 0.30612-1.1093-2.212-2.3166-4.5402-2.973-7.0415-1.1893-3.7151-2.3162-7.4489-3.4783-11.17-1.556-4.148-3.0512-8.365-5.1036-12.289-1.9507-3.5824-3.7142-7.3638-6.5131-10.377-1.3436-1.8325-2.5552-3.7042-4.6-4.8345-1.0286-0.32637-1.9023-1.0919-3.1079-0.72936-1.8939 1.122-3.7766 2.2519-5.2763 3.9492-2.5506 2.913-5.049 5.8693-7.2729 9.0456-2.7667 3.7867-5.4844 7.6162-7.8728 11.657-1.6302 2.8272-3.4077 5.6343-4.2711 8.7997-0.44336 1.6253-3.1606 0.013046-2.0344-1.24z"/>
  <path d="m451.19 226.69c0.84524-1.8658 2.2088-3.4198 3.3334-5.1288 2.4383-3.7478 5.2815-7.1928 7.934-10.788 3.205-4.2169 6.9083-8.0029 10.285-12.074 2.8955-3.5229 6.0631-6.7897 9.3424-9.951 2.3579-2.3269 4.7755-4.5803 7.1932-6.8466 1.4923-1.5973 3.3879-2.6746 5.2004-3.8061 3.4371-0.88962 4.5068 1.144 5.0129 4.1372 0.98077 2.9009 1.3869 5.8987 1.72 8.9545 0.58121 4.3563 0.79303 8.748 0.98651 13.135 0.11899 3.0653 0.30234 6.1276 0.45694 9.1912 0.050934 1.0089-1.3758 1.0809-1.4268 0.072021-0.15476-3.0667-0.33826-6.132-0.45737-9.2003-0.19058-4.3228-0.34839-8.6656-1.0322-12.944-0.74936-2.7017-1.359-5.6246-2.7486-8.0278-1.0161 0.17313-1.5744-0.16397-0.33762 0.057526-1.3597 0.74551-2.7322 1.4725-3.9015 2.5839-2.6037 1.9493-5.1661 3.9265-7.7053 5.9601-3.2835 2.9107-6.5689 5.82-9.446 9.1487-3.4763 3.875-6.4745 8.1272-9.6279 12.265-2.6307 3.3972-4.5989 7.152-6.3679 11.062-0.84061 1.7175-1.4464 3.5373-2.467 5.1441-2.5158 3.9604-7.8825 1.3296-5.9464-2.9442z"/>
  <path d="m467.46 249.99c1.1462-1.6305 2.2899-3.2149 3.6188-4.7033 1.2696-2.0316 3.0822-3.4015 5.0203-4.7259 0.83398-0.56995 1.5672 0.37515 0.88571 1.1208-1.4384 1.574-2.8931 3.1688-4.3138 4.7802-0.84628 1.5482-1.8412 3.0553-1.9718 4.8506-0.1795 2.4674-4.6619 0.70145-3.2391-1.3224z"/>
  <path d="m490.94 247.81c-0.43082-1.028-1.2022-1.8193-1.8351-2.7192-1.6758-1.4839-3.6906-2.2739-5.6871-3.1916-0.47073 0.025116-0.9415 0.050232-1.4122 0.075348-1.0087 0.053833-1.079-1.3815-0.069794-1.4269 0.53381-0.024017 1.0677-0.048035 1.6015-0.072052 2.9406-0.2352 5.469-0.15265 7.9716 1.8525 1.3192 1.0887 2.5945 2.0892 3.1873 3.7772 0.96652 2.752-2.6288 4.3948-3.7561 1.7048z"/>
  <path d="m500.03 223.06c-1.739 1.6437-2.4061 4.2112-3.0339 6.5122-1.4794 6.124-1.822 12.52-2.2088 18.801-0.20904 3.3202-0.09787 6.6427 0.027527 9.9624 0.038116 1.0094-1.3897 1.0632-1.4276 0.053741-0.12631-3.3669-0.23816-6.7367-0.025818-10.104 0.39337-6.376 1.1939-12.709 1.6908-19.068 0.30243-3.0722 0.26132-6.26 1.3308-9.1884 1.1503-3.1498 6.084 0.72772 3.647 3.0311z"/>
  <path d="m504.99 222.2c-0.32034 1.2048-0.071014 2.3924-0.02533 3.5996 0.038177 1.0094-1.0712 1.1888-1.4088 0.23672-0.36487-1.0289-0.36352-2.1598-1.3379-2.8836-1.6638-1.236 3.3046-2.9557 2.772-0.95267z"/>
  <path d="m510.08 228.82c-0.14984-2.1727-0.35709-4.1507-0.1666-6.3285 0.2341-3.0355 1.0881-6.0289 1.8803-8.9703 0.48807-2.6077 1.5508-4.9674 2.7661-7.2941 1.1356-1.9382 2.5414-3.303 4.3859-4.4652 4.1547-0.46954 4.7841 2.2751 6.3117 5.5509 1.6677 4.941 3.7963 9.694 5.4835 14.629 0.34601 1.083 0.69202 2.1659 1.0381 3.2488 0.3075 0.96222-1.0535 1.397-1.3608 0.43475-0.34302-1.0739-0.68604-2.1478-1.029-3.2216-1.6297-4.7718-3.1569-9.7108-6.6609-13.478-0.67053-0.64737-3.8027-2.3348-1.7948-2.2369-0.65064 0.52408-1.9154 0.97339-2.3061 2.0851-1.143 1.8668-2.3311 3.7177-2.929 5.8563-0.72388 2.768-1.413 5.5254-1.9346 8.3229-0.23865 1.9934-0.92621 3.8721-0.91394 5.867 0.011963 1.9586-2.6351 1.954-2.7699 0z"/>
  <path d="m497.37 165.7c1.8497-2.7931 4.0283-5.4506 5.8353-8.369 3.0555-4.9063 5.9983-9.8815 8.9285-14.863 2.0838-3.6035 4.4208-7.0468 6.7254-10.51 1.6295-2.602 3.7174-4.1872 6.4362-5.4028 3.4617-0.28726 5.3414 1.7007 7.4158 4.1795 2.7204 2.9268 3.8607 6.67 4.9053 10.448 1.5369 5.3023 2.7999 10.704 3.5508 16.174 0.98498 5.6414 1.0617 11.36 1.3132 17.061 0.16272 2.3929-0.15906 4.7613-0.23547 7.1505-0.032349 1.0096-1.4602 0.9639-1.4279-0.045746 0.07605-2.3724-0.11054-4.7167 0.016479-7.0889 0.143-5.6311-0.32251-11.273-1.1292-16.846-0.96149-5.3503-1.7267-10.75-3.4518-15.931-1.4312-3.3518-3.4014-6.2657-5.5143-9.2134-1.4829-1.3206-2.6712-2.8673-4.7656-3.0582-2.313 0.72888-4.164 1.5149-5.7001 3.6584-2.6154 3.1698-4.8951 6.5528-6.9077 10.148-2.9357 4.9911-5.884 9.9755-8.9452 14.891-1.768 2.8554-3.2037 5.8788-4.611 8.8245-0.82953 1.7364-3.5014 0.39688-2.4389-1.2076z"/>
  <path d="m537.87 184.75c2.3419-1.496 4.0922-3.723 5.9609-5.7474 1.8483-2.1974 3.4268-4.5682 5.1681-6.8447 1.1404-1.6127 2.6834-2.8719 4.1743-4.1527 2.8018-0.82694 4.3041-0.19017 6.3104 1.6309 1.8107 2.8662 2.6444 5.9643 3.3302 9.2434 0.57581 5.5923 0.88623 11.207 0.75006 16.829-0.13324 6.7222-1.0617 13.395-1.9016 20.058-1.5148 7.3942-3.4542 14.664-5.9589 21.787-2.8697 6.7432-4.3809 14.01-7.8535 20.479-2.2739 2.5683-3.8811 5.1922-5.0737 8.3744-0.35449 0.94589-1.6923 0.44452-1.3377-0.50137 1.191-3.1777 1.6987-6.1968 1.6402-9.6237 1.5388-7.126 5.2297-13.535 7.1896-20.555 2.1805-6.8045 4.7093-13.595 5.1105-20.8 0.90424-6.3794 1.3174-12.8 1.4373-19.242-0.096069-5.154-0.17798-10.328-1.5149-15.347-0.53241-2.3975-0.98737-4.8182-1.2992-7.2381 0.18695-0.23317 0.99768-0.82306 0.96967-1.2092-1.2363 0.57698-2.7811 1.1244-3.8813 2.3043-2.1696 1.7915-4.3353 3.6076-6.1865 5.7508-1.6912 2.027-3.7659 3.9246-4.4017 6.5508-0.52557 2.171-4.5148-0.54388-2.6324-1.7464z"/>
  <path d="m378.82 179.9c1.0768-2.9649 2.7115-5.7618 4.0218-8.6714 2.7775-6.124 5.1261-12.449 7.5405-18.729 2.1199-5.5105 3.9143-11.14 6.1234-16.618 1.1511-3.6973 2.5142-7.3106 4.1092-10.827 1.256-2.7984 3.1051-4.7689 5.5133-6.5211 3.9209-2.0276 6.5476-0.12961 9.6839 2.28 3.1419 3.3556 6.2515 6.7971 8.6805 10.709 2.9049 4.4626 5.6292 9.0822 8.186 13.76 2.2221 4.2454 4.0426 8.6828 5.9234 13.085 0.39685 0.92892-0.91971 1.4835-1.3166 0.55454-1.8619-4.3581-3.6633-8.7511-5.8605-12.955-2.5106-4.598-5.3801-8.846-9.3116-12.375-3.2658-2.6966-6.0319-6.0115-9.6484-8.2734-1.018-0.51622-2.0456-1.1172-3.0717-1.5586-1.3015 1.2434-2.6256 2.3459-3.3976 4.0503-1.7792 3.2325-3.5764 6.4931-5.0982 9.8766-2.2754 5.4286-4.7937 10.756-6.956 16.23-2.5071 6.0808-5.2503 12.233-6.2918 18.758-0.46689 2.8942-0.78467 5.7989-0.97015 8.6955-0.36133 5.6423-9.7895 3.8436-7.8594-1.4706z"/>
  <path d="m332.63 161.37c1.736-1.4316 3.1335-3.1928 4.578-4.8798 1.904-2.9798 3.6929-6.0325 5.5483-9.0436 0.513-0.89995 1.1256-1.7367 1.688-2.6046 0.54938-0.84769 1.7369-0.053513 1.1875 0.79417-0.55466 0.85576-1.16 1.68-1.6646 2.5683-1.847 2.9973-3.7281 5.9809-5.3958 9.0826-0.74927 2.0527-1.6109 4.1061-1.9844 6.287-0.54065 3.1569-6.4281-0.16647-3.957-2.2042z"/>
  <path d="m367.05 134.64c2.1105 0.28899 3.7425 1.5634 5.5759 2.5674 2.3598 1.5502 4.7915 2.9624 7.1985 4.4205 2.2025 1.1689 4.0034 2.7905 5.7323 4.5543 1.2467 1.5574 2.43 2.9719 3.8831 4.2695 0.97696 0.83249 1.8234 1.8347 2.669 2.7756-0.26694 0.47022-0.53384 0.94043-0.80081 1.4107-0.56744 0.99962-0.17776 0.54939-1.1717 1.1268-0.46136 0.26804-0.92276 0.53606-1.3841 0.80408-0.95996-0.92387-1.9581-1.8615-2.8408-2.876-1.098-1.6167-2.2763-3.0706-3.6074-4.5294-1.5027-1.462-2.9875-2.9716-4.6987-4.2178-2.1867-1.6238-4.3585-3.2261-6.9356-4.2152-1.5954-0.86806-3.2083-1.6042-4.8168-2.3639-2.5028-1.1819-1.5451-4.1022 1.1971-3.7267z"/>
  <path d="m467.67 131.28c1.842-1.0377 3.338-2.5671 4.8831-3.9815 2.8628-2.2535 5.1668-5.0794 7.6216-7.7495 1.635-2.1149 3.4555-4.0698 5.3192-5.9796 2.0934-2.004 4.1372-2.0145 6.8232-1.8269 3.2054 1.2539 5.4351 4.0535 7.7909 6.4376 2.8539 3.2157 5.2907 6.7684 7.8559 10.216 1.835 2.6585 3.6749 5.2584 5.0923 8.1599 0.51086 1.2317 0.15167 2.5223-0.030273 3.7987-0.14252 1.0001-0.5097 1.0723-1.3396 0.49635-0.93314-0.64758-1.9555-1.2883-2.6028-2.2384-1.5557-2.6477-2.7593-5.4802-4.3838-8.098-2.0697-3.5412-4.2454-6.9662-7.1488-9.9061-1.8482-1.8438-3.5378-3.701-6.2042-4.4749-1.1506 0.071602-2.0774-0.48636-3.0965 0.65079-1.9742 1.5882-3.9328 3.1904-5.7904 4.9197-2.5333 2.5766-5.1913 5.0506-7.1686 8.101-1.2685 1.6973-2.624 3.3735-3.5838 5.278-1.7649 3.5025-7.4546-1.8779-4.0375-3.803z"/>
  <path d="m283.05 168.4c0.27463-2.0776 0.50348-4.1824 0.85068-6.2543 0.47592-2.9539 0.8653-5.909 1.1018-8.8903 0.1582-2.4996 1.1248-4.6085 2.406-6.704 2.4334-2.5596 4.7459-2.3156 7.8568-1.9071 3.3382 0.97688 6.2658 2.4783 9.1706 4.3396 3.0335 2.4858 5.9549 5.0253 8.7795 7.746 2.1279 1.7408 3.6143 3.9108 5.0296 6.2179 0.5282 0.86105-0.33246 1.5806-1.0948 0.9178-1.9852-1.726-3.841-3.5243-5.4426-5.628-2.6412-2.6833-5.196-5.5462-8.4258-7.5393-2.5694-1.6204-4.9637-3.5379-8.154-3.0936-1.4214 0.5108-2.9009 0.67632-3.9669 1.8434-0.75738 1.4628-1.8526 2.7661-2.012 4.5889-0.77176 2.7936-1.261 5.6258-1.5038 8.528-0.15994 2.1568-0.47031 4.3-0.77798 6.425-0.3913 2.7029-4.1749 2.1175-3.817-0.59004z"/>
  <path d="m398.92 250.37c1.1169 1.8611 1.3024 3.9754 1.5219 6.1028 0.62305 3.901 0.90488 7.197-0.90122 10.792 0.086914 0.7168 0.17386 1.4336 0.2608 2.1504 0.12161 1.0028-1.2966 1.1748-1.4182 0.17203-0.0867-0.715-0.17343-1.43-0.26013-2.1449-2.552-2.9717-3.0928-6.1629-3.6753-9.9582-0.41556-2.1836-0.92795-4.3438-0.13159-6.4761 1.1498-3.0787 2.9126-3.4556 4.6037-0.6377z"/>
  <path d="m413.09 246.84c0.13327 2.6562-0.23157 5.7993-0.23038 8.6562 0.18225 3.4996-0.68326 6.7827-0.32986 10.245 0.10257 1.0049-1.2958 1.1626-1.4196 0.1601-0.43155-3.4967-1.9621-6.6244-2.1992-10.187-0.30173-2.7553-0.8432-5.7524-1.2331-8.2914-0.58423-3.8045 5.2193-4.4274 5.4122-0.58307z"/>
  <path d="m428.37 233.59c0.24466 2.8588-0.36008 5.6133-0.82178 8.4216-0.16391 5.4333-2.4444 10.208-3.9678 15.299-0.28961 0.96774-1.2217 0.93014-1.4274-0.058868-1.0813-5.2006-2.7154-10.173-2.2522-15.581-0.1972-2.4405-0.57092-4.8803-0.75113-7.3101-0.48392-6.5245 8.6624-7.2893 9.2202-0.77069z"/>
  <path d="m438.49 246.92c-0.38834 2.4094-0.94913 4.8409-1.2985 7.2917-0.33725 2.8673-1.3008 5.5222-1.8143 8.3466-0.18066 0.99387-1.4155 0.888-1.4233-0.12213-0.022675-2.913-0.48288-5.73-0.072693-8.6466 0.25269-2.3889 0.37308-4.774 0.39105-7.1566 0.022522-2.9892 4.6934-2.6642 4.2177 0.28699z"/>
  <path d="m452.98 240.66c-0.6648 3.4338-2.0284 6.9586-3.0183 10.394-1.4107 4.6007-3.5525 8.6648-4.3488 13.444-0.16605 0.99643-1.5752 0.7616-1.4092-0.2348 0.78781-4.7277 0.22202-9.2666 0.3515-14.031 0.051086-3.4304-0.311-6.8936-0.59769-10.216-0.54987-6.3724 10.238-5.6362 9.0225 0.64328z"/>
  <path d="m475.86 418.37c1.8426 2.4213 3.9748 4.6496 6.0271 6.9142 5.1012 3.3743 10.204 7.2327 14.524 11.644 5.1752 5.4569 10.282 10.945 15.449 16.431 4.1546 4.4835 9.513 7.6238 14.476 11.155 5.0131 2.9055 10.352 4.6068 15.878 6.1812 7.5465 1.721 15.343 1.8656 23.053 1.8878 11.046-0.31873 22.049-1.3381 32.93-3.2537 12.649-2.1157 24.85-6.1015 36.832-10.581 9.9685-3.8695 19.668-8.3998 29.205-13.228 5.0988-2.794 10.294-5.4152 15.401-8.1796 2.9551-1.6226 5.8066-2.743 9.0834-3.1792 2.0266 1.0214 4.2042 1.604 6.2429 2.4014 1.3304 0.52039 1.222 0.39508 0.93012 1.7935-0.45142 2.1627-1.0554 4.3672-1.5534 6.5818-2.8149 2.6149-5.7446 4.2846-9.6039 5.1936-5.5583 1.5459-11.039 3.3666-16.589 4.9548-10.302 3.2748-20.44 7.0183-30.608 10.681-12.457 4.2515-25.002 8.2422-37.816 11.288-11.23 2.4449-22.503 4.8271-33.998 5.6352-8.7962 0.79083-17.654 1.3607-26.411-0.19763-6.976-1.5027-13.923-4.0621-19.556-8.544-5.6373-4.2133-10.666-8.6149-15.017-14.211-4.8519-5.6876-9.3937-11.611-14.244-17.274-4.042-4.5278-7.6777-9.4514-11.546-14.063-2.4356-2.062-4.8532-4.1727-7.2875-6.2058-3.0829-2.5748 1.7659-7.023 4.1983-3.8266z"/>
  <path d="m554.62 375.05c5.5967 0.677 11.157-0.068298 16.687-0.96274 13.588-1.6497 26.558-6.1744 39.409-10.671 14.387-4.9609 28.46-10.735 42.286-17.077 9.2625-4.7757 17.888-10.609 26.428-16.545 5.4434-3.8009 10.916-7.5351 16.166-11.591 3.8492-2.9096 7.2596-6.2776 10.524-9.798 1.8538-1.8839 3.2708-3.9567 4.6108-6.1968 0.1485-0.53842 0.024597-1.1167 0.036926-1.6751 0.71228 0.11694-3.7618-1.3914-4.5088-1.6114-7.7479-1.368-15.698-1.0682-23.523-0.58185-10.775 0.48035-21.463 2.1136-32.133 3.6132-10.339 1.6726-20.69 3.2759-31.01 5.0624-1.4076 0.24365-1.7522-1.7471-0.34454-1.9907 10.341-1.7898 20.713-3.3972 31.074-5.0723 10.718-1.5064 21.46-2.7777 32.198-4.0968 8.1439-0.90793 16.212-2.2793 24.361-3.0904 4.7348 0.19577 9.2006-0.082458 12.125 4.2221 0.60516 3.1671 0.927 5.6561-0.862 8.5609-1.6337 3.1537-3.1756 6.4616-5.8015 8.932-3.8898 3.4951-7.8903 6.9428-12.274 9.8693-5.7355 3.7246-11.33 7.6788-17.49 10.701-9.377 4.8039-19.01 9.0774-28.736 13.124-13.884 6.3676-28.015 12.166-42.461 17.147-12.982 4.5428-25.961 9.0956-38.787 14.066-5.8403 1.9012-11.512 4.2083-17.324 6.1396-7.0449 2.3411-8.021-11.37-0.651-10.478z"/>
  <path d="m449.22 424.28c-2.9119-0.49002-5.5767 0.49686-8.329 1.2815-4.5252 3.5872-3.8328 0.29779-5.1207 0.17114 2.8332 1.1865 5.9729 0.67093 8.9763 0.49616 4.0867-0.98624 5.3099-1.4924 8.7146 0.027679-0.32849 2.8447-2.076 5.1176-3.3301 7.6937 2.8496 4.1832 2.2455 9.5708 3.1014 15.009 0.44641 6.7094 1.8537 13.084 0.76892 19.786-2.0291 12.822-3.341 25.73-4.7193 38.643-1.3311 20.264-3.0887 40.518-3.755 60.816-0.78171 19.953-0.68362 39.931-1.4885 59.883 0.68042 9.5265-1.7636 18.705-2.8276 28.065-0.16135 1.4194-1.8958 1.3971-2.0201-0.026123-0.82184-9.4119-2.9178-18.698-1.6831-28.217 0.28574-19.97 1.5599-39.913 1.8757-59.883 0.51978-20.322 0.16394-40.664 0.1181-60.992-0.44025-13.159-0.86017-26.339-1.1458-39.485-0.025146-6.6769 2.533-12.334 3.7958-18.802 0.45474-6.1289 1.0314-11.059 4.5519-15.634 0.22241-1.0372 1.4526-8.3873 1.8422-5.0049-1.2188 0.045654-2.4391 0.21164-3.6564 0.13696-3.96 0.22769-8.1142 0.86331-11.848-0.69467-2.8882-5.3588 2.0191-5.4536 6.1664-7.0678 2.9667-1.0284 5.9991-1.9871 8.8334-3.3459 4.6169-2.2134 6.228 7.994 1.1789 7.1443z"/>
 </g>
</svg>
